# xmcd
#
# Track frame offsets: 
#        150
#        17503
#        36285
#        53428
#        69788
#        86262
#        105450
#        127084
#        146429
#        161530
#        174885
#        193067
#
# Disc length: 2893 seconds
#
# Revision: 0
# Processed by: cddbd v1.5.1PL0 Copyright (c) Steve Scherf et al.
# Submitted via: ExactAudioCopy v0.95a5
#
DISCID=8c0b4b0c
DTITLE=Qusbic - Zwykle nie mowie nic
DYEAR=2003
DGENRE=Blues
TTITLE0=za malo jest wody
TTITLE1=zwykle nie mowie nic
TTITLE2=patrzac na Jezusa
TTITLE3=nadzieja
TTITLE4=sluchaj Izraelu
TTITLE5=list
TTITLE6=nie od razu tonie lodz
TTITLE7=Alabama
TTITLE8=zachowaj mnie
TTITLE9=blues z Biblia pod pacha
TTITLE10=czy moge ukryc cos przed Toba
TTITLE11=mijamy sie
EXTD=
EXTT0=
EXTT1=
EXTT2=
EXTT3=
EXTT4=
EXTT5=
EXTT6=
EXTT7=
EXTT8=
EXTT9=
EXTT10=
EXTT11=
PLAYORDER=
